<svg width="25" height="22" viewBox="0 0 25 22" fill="none" xmlns="http://www.w3.org/2000/svg">
<g clip-path="url(#clip0_7_3845)">
<path d="M18.9499 4C22.2918 4 25 6.02702 25 8.86486C25 14.5405 16.75 17.7838 14 19C11.25 17.7838 3 14.5405 3 8.86486C3 6.02702 5.75 4 9.04999 4C11.096 4 12.9 4.81081 14 5.62162C15.0999 4.81081 16.904 4 18.9499 4ZM15.0274 16.6518C15.9964 16.2011 16.871 15.7527 17.6894 15.2727C20.9685 13.3511 22.8 11.251 22.8 8.86486C22.8 6.95135 21.1093 5.62162 18.9499 5.62162C17.7663 5.62162 16.4859 6.08377 15.5553 6.7681L14 7.91459L12.4446 6.7681C11.514 6.08377 10.2336 5.62162 9.04999 5.62162C6.91599 5.62162 5.2 6.96432 5.2 8.86486C5.2 11.2519 7.03259 13.3511 10.3095 15.2727C11.129 15.7527 12.0035 16.2011 12.9726 16.6511C13.3014 16.8043 13.6271 16.951 14 17.1148C14.3729 16.951 14.6985 16.8043 15.0274 16.6518Z" fill="white"/>
</g>
<defs>
<clipPath id="clip0_7_3845">
<rect width="24.1315" height="22" fill="white" transform="translate(0.489258)"/>
</clipPath>
</defs>
</svg>
